<svg width="208" height="96" viewBox="0 0 208 96" fill="none" xmlns="http://www.w3.org/2000/svg">
<g clip-path="url(#clip0_6126_14321)">
<rect width="208" height="96" fill="#FFE2D1"/>
<g opacity="0.8" clip-path="url(#clip1_6126_14321)">
<path d="M53.8278 33.4198H26.0478C24.9168 33.4198 24 34.3366 24 35.4676V50.5329C24 51.6638 24.9168 52.5807 26.0478 52.5807H53.8278C54.9588 52.5807 55.8756 51.6638 55.8756 50.5329V35.4676C55.8756 34.3366 54.9588 33.4198 53.8278 33.4198Z" fill="white"/>
<path opacity="0.7" d="M53.8278 33.4198H26.0478C24.9168 33.4198 24 34.3366 24 35.4676V50.5329C24 51.6638 24.9168 52.5807 26.0478 52.5807H53.8278C54.9588 52.5807 55.8756 51.6638 55.8756 50.5329V35.4676C55.8756 34.3366 54.9588 33.4198 53.8278 33.4198Z" fill="#FFB996"/>
<path d="M47.0955 43.6938H44.6356C44.4859 43.6938 44.3646 43.8151 44.3646 43.9649V49.4172C44.3646 49.5669 44.4859 49.6882 44.6356 49.6882H47.0955C47.2452 49.6882 47.3666 49.5669 47.3666 49.4172V43.9649C47.3666 43.8151 47.2452 43.6938 47.0955 43.6938Z" fill="white"/>
<path d="M53.0231 39.0317H50.5632C50.4135 39.0317 50.2921 39.1531 50.2921 39.3028V49.417C50.2921 49.5667 50.4135 49.6881 50.5632 49.6881H53.0231C53.1728 49.6881 53.2942 49.5667 53.2942 49.417V39.3028C53.2942 39.1531 53.1728 39.0317 53.0231 39.0317Z" fill="white"/>
<path d="M29.3125 43.6938H26.8526C26.7028 43.6938 26.5815 43.8151 26.5815 43.9649V49.4172C26.5815 49.5669 26.7028 49.6882 26.8526 49.6882H29.3125C29.4622 49.6882 29.5835 49.5669 29.5835 49.4172V43.9649C29.5835 43.8151 29.4622 43.6938 29.3125 43.6938Z" fill="white"/>
<path d="M35.2402 36.9121H32.7803C32.6306 36.9121 32.5092 37.0335 32.5092 37.1832V49.4172C32.5092 49.5669 32.6306 49.6882 32.7803 49.6882H35.2402C35.3899 49.6882 35.5113 49.5669 35.5113 49.4172V37.1832C35.5113 37.0335 35.3899 36.9121 35.2402 36.9121Z" fill="white"/>
<path d="M41.1678 42.3501H38.7079C38.5582 42.3501 38.4368 42.4715 38.4368 42.6212V49.417C38.4368 49.5667 38.5582 49.6881 38.7079 49.6881H41.1678C41.3175 49.6881 41.4389 49.5667 41.4389 49.417V42.6212C41.4389 42.4715 41.3175 42.3501 41.1678 42.3501Z" fill="white"/>
<g filter="url(#filter0_d_6126_14321)">
<path d="M50.4847 102.335L162.685 102.335C165.44 102.335 167.674 100.101 167.674 97.3457V15.1978C167.674 12.4425 165.44 10.2088 162.685 10.2088L50.4847 10.2088C47.7294 10.2088 45.4958 12.4425 45.4958 15.1978L45.4958 97.3457C45.4958 100.101 47.7294 102.335 50.4847 102.335Z" fill="white"/>
</g>
<path d="M161.072 16.9877H113.466C112.298 16.9877 111.35 17.935 111.35 19.1036V52.7806C111.35 53.9491 112.298 54.8964 113.466 54.8964H161.072C162.241 54.8964 163.188 53.9491 163.188 52.7806V19.1036C163.188 17.935 162.241 16.9877 161.072 16.9877Z" fill="white"/>
<path d="M160.722 16.9999H113.116C111.947 16.9999 111 17.9472 111 19.1158V52.7928C111 53.9613 111.947 54.9086 113.116 54.9086H160.722C161.891 54.9086 162.838 53.9613 162.838 52.7928V19.1158C162.838 17.9472 161.891 16.9999 160.722 16.9999Z" fill="#FFF1E8"/>
<path opacity="0.2" d="M148.498 36.8401C148.498 39.2628 147.78 41.631 146.434 43.6454C145.088 45.6597 143.175 47.2298 140.937 48.1569C138.698 49.084 136.236 49.3266 133.859 48.854C131.483 48.3814 129.301 47.2148 127.588 45.5017C125.875 43.7886 124.708 41.606 124.235 39.23C123.763 36.8539 124.005 34.391 124.932 32.1527C125.86 29.9145 127.43 28.0014 129.444 26.6555C131.458 25.3095 133.826 24.5911 136.249 24.5911V36.8401H148.498Z" fill="#FF521C"/>
<path d="M150 35.249H137.752V23C141 23.0001 144.116 24.2907 146.413 26.5878C148.71 28.8849 150 32.0004 150 35.249Z" fill="#FF521C"/>
<path d="M160.159 58.6071H113.806C112.134 58.6071 110.778 59.9631 110.778 61.6359V86.7356C110.778 88.4084 112.134 89.7644 113.806 89.7644H160.159C161.832 89.7644 163.188 88.4084 163.188 86.7356V61.6359C163.188 59.9631 161.832 58.6071 160.159 58.6071Z" fill="#FFF1E8"/>
<path d="M142.129 66.3897C142.751 66.3897 143.255 65.8856 143.255 65.2639C143.255 64.6421 142.751 64.138 142.129 64.138C141.507 64.138 141.003 64.6421 141.003 65.2639C141.003 65.8856 141.507 66.3897 142.129 66.3897Z" fill="#FF521C"/>
<path d="M142.129 72.1289C142.751 72.1289 143.255 71.6248 143.255 71.003C143.255 70.3813 142.751 69.8772 142.129 69.8772C141.507 69.8772 141.003 70.3813 141.003 71.003C141.003 71.6248 141.507 72.1289 142.129 72.1289Z" fill="#674A47"/>
<path d="M142.129 77.8682C142.751 77.8682 143.255 77.3642 143.255 76.7424C143.255 76.1206 142.751 75.6165 142.129 75.6165C141.507 75.6165 141.003 76.1206 141.003 76.7424C141.003 77.3642 141.507 77.8682 142.129 77.8682Z" fill="white"/>
<path d="M142.129 83.6073C142.751 83.6073 143.255 83.1033 143.255 82.4815C143.255 81.8597 142.751 81.3557 142.129 81.3557C141.507 81.3557 141.003 81.8597 141.003 82.4815C141.003 83.1033 141.507 83.6073 142.129 83.6073Z" fill="#FFB996"/>
<path d="M157.753 65.2634C157.753 65.4323 157.686 65.5943 157.566 65.7138C157.447 65.8332 157.285 65.9003 157.116 65.9003H146.294C146.144 65.9031 145.997 65.854 145.878 65.7614C145.759 65.6688 145.676 65.5382 145.642 65.3914C145.623 65.2988 145.625 65.2031 145.648 65.1113C145.67 65.0195 145.713 64.9339 145.773 64.8607C145.833 64.7874 145.908 64.7284 145.994 64.6879C146.079 64.6474 146.173 64.6264 146.267 64.6265H157.116C157.2 64.6264 157.282 64.6429 157.36 64.6749C157.437 64.7069 157.507 64.7538 157.566 64.813C157.626 64.8721 157.672 64.9423 157.704 65.0196C157.736 65.0969 157.753 65.1797 157.753 65.2634Z" fill="white"/>
<path d="M157.753 71.0028C157.753 71.1718 157.686 71.3338 157.566 71.4532C157.447 71.5727 157.285 71.6398 157.116 71.6398H146.301C146.212 71.6411 146.125 71.6247 146.043 71.5915C145.961 71.5583 145.887 71.5091 145.824 71.4467C145.762 71.3842 145.712 71.3099 145.679 71.2281C145.646 71.1463 145.629 71.0586 145.63 70.9703C145.639 70.8071 145.71 70.6535 145.828 70.5411C145.947 70.4287 146.104 70.366 146.267 70.3661H157.116C157.2 70.3661 157.282 70.3825 157.36 70.4145C157.437 70.4465 157.507 70.4934 157.566 70.5525C157.625 70.6117 157.672 70.6819 157.704 70.7591C157.736 70.8364 157.753 70.9192 157.753 71.0028Z" fill="white"/>
<path d="M157.753 76.7423C157.753 76.9113 157.686 77.0733 157.566 77.1927C157.447 77.3122 157.285 77.3793 157.116 77.3793H146.201C146.05 77.3793 145.904 77.319 145.797 77.2117C145.69 77.1044 145.629 76.9589 145.629 76.8072V76.6777C145.629 76.5259 145.69 76.3804 145.797 76.2731C145.904 76.1659 146.05 76.1056 146.201 76.1056H157.116C157.2 76.1056 157.282 76.122 157.36 76.154C157.437 76.186 157.507 76.2329 157.566 76.292C157.625 76.3512 157.672 76.4214 157.704 76.4986C157.736 76.5759 157.753 76.6587 157.753 76.7423Z" fill="white"/>
<path d="M157.753 82.4819C157.753 82.6508 157.686 82.8128 157.566 82.9323C157.447 83.0517 157.285 83.1188 157.116 83.1188H146.297C146.146 83.1216 145.999 83.0727 145.88 82.9802C145.76 82.8877 145.677 82.7572 145.642 82.6104C145.623 82.5178 145.625 82.4221 145.648 82.3304C145.67 82.2386 145.713 82.153 145.773 82.0797C145.833 82.0065 145.908 81.9475 145.993 81.907C146.079 81.8665 146.172 81.8454 146.267 81.8455H157.116C157.199 81.8454 157.282 81.8618 157.359 81.8938C157.437 81.9257 157.507 81.9726 157.566 82.0317C157.625 82.0908 157.672 82.1609 157.704 82.2382C157.736 82.3154 157.753 82.3982 157.753 82.4819Z" fill="white"/>
<path d="M121.005 73.8727C121.005 75.2451 121.431 76.5836 122.223 77.7039C123.016 78.8242 124.137 79.6711 125.431 80.1281L123.611 84.5668C121.108 83.6234 119.015 81.8318 117.697 79.504C116.379 77.1763 115.92 74.4599 116.399 71.8282C116.878 69.1965 118.265 66.8164 120.319 65.1024C122.373 63.3885 124.963 62.4495 127.638 62.4489V67.2407C125.879 67.2406 124.192 67.9393 122.948 69.183C121.704 70.4267 121.005 72.1137 121.005 73.8727Z" fill="#FF521C"/>
<path d="M139.063 73.8727H134.271C134.271 72.1136 133.572 70.4265 132.328 69.1825C131.084 67.9386 129.397 67.2397 127.638 67.2397V62.4479C130.668 62.4479 133.574 63.6516 135.716 65.7942C137.859 67.9367 139.063 70.8427 139.063 73.8727Z" fill="#674A47"/>
<path d="M139.063 73.8727C139.062 76.4615 138.183 78.9734 136.569 80.9974C134.955 83.0214 132.702 84.4374 130.178 85.0138L129.366 80.2773C130.774 79.8969 132.017 79.0635 132.904 77.9059C133.79 76.7482 134.271 75.3308 134.271 73.8727H139.063Z" fill="white"/>
<path d="M130.178 85.0138C127.992 85.509 125.709 85.3534 123.611 84.5663L125.431 80.1281C126.698 80.5728 128.069 80.6249 129.366 80.2777L130.178 85.0138Z" fill="#FFB996"/>
<path d="M104.127 16.9877H52.9685C51.3153 16.9877 49.9751 18.3279 49.9751 19.9811V86.771C49.9751 88.4242 51.3153 89.7644 52.9685 89.7644H104.127C105.78 89.7644 107.12 88.4242 107.12 86.771V19.9811C107.12 18.3279 105.78 16.9877 104.127 16.9877Z" fill="#FFF1E8"/>
<g opacity="0.6">
<path d="M59.8079 71.7063C60.4297 71.7063 60.9338 71.2022 60.9338 70.5804C60.9338 69.9587 60.4297 69.4546 59.8079 69.4546C59.1861 69.4546 58.6821 69.9587 58.6821 70.5804C58.6821 71.2022 59.1861 71.7063 59.8079 71.7063Z" fill="#FFCEB6"/>
<path d="M98.3811 70.5809C98.3811 70.7499 98.314 70.9119 98.1946 71.0313C98.0751 71.1508 97.9131 71.2179 97.7442 71.2179H63.9732C63.8226 71.2206 63.6757 71.1716 63.5569 71.0789C63.4382 70.9862 63.3549 70.8556 63.321 70.7088C63.3021 70.6162 63.3041 70.5205 63.3268 70.4287C63.3495 70.3369 63.3923 70.2513 63.4521 70.1781C63.5119 70.1048 63.5873 70.0458 63.6727 70.0053C63.7582 69.9648 63.8516 69.9438 63.9461 69.9438H97.7442C97.8278 69.9438 97.9107 69.9603 97.988 69.9923C98.0652 70.0244 98.1355 70.0713 98.1946 70.1305C98.2538 70.1896 98.3007 70.2599 98.3327 70.3371C98.3647 70.4144 98.3811 70.4973 98.3811 70.5809Z" fill="#FFCEB6"/>
</g>
<path d="M59.8079 77.4457C60.4297 77.4457 60.9338 76.9416 60.9338 76.3198C60.9338 75.698 60.4297 75.194 59.8079 75.194C59.1861 75.194 58.6821 75.698 58.6821 76.3198C58.6821 76.9416 59.1861 77.4457 59.8079 77.4457Z" fill="#FAFAFA"/>
<path d="M98.3811 76.3197C98.3811 76.4886 98.314 76.6506 98.1946 76.77C98.0751 76.8895 97.9131 76.9566 97.7442 76.9566H63.9797C63.8914 76.9579 63.8037 76.9415 63.7218 76.9083C63.6399 76.8752 63.5655 76.8259 63.503 76.7635C63.4405 76.7011 63.3911 76.6267 63.3578 76.5449C63.3245 76.4631 63.308 76.3754 63.3092 76.2871C63.3177 76.1239 63.3886 75.9703 63.5071 75.8578C63.6256 75.7454 63.7827 75.6827 63.9461 75.6827H97.7442C97.8278 75.6827 97.9106 75.6992 97.9879 75.7312C98.0652 75.7632 98.1354 75.8101 98.1946 75.8693C98.2537 75.9284 98.3006 75.9986 98.3326 76.0759C98.3646 76.1532 98.3811 76.236 98.3811 76.3197Z" fill="white"/>
<rect x="61.9999" y="27.9999" width="34" height="34" rx="17" fill="white"/>
<path d="M73.56 38.0474C73.56 36.4128 75.4144 35.4685 76.7363 36.4299L85.74 42.978C87.1127 43.9764 87.1127 46.0233 85.74 47.0217L76.7363 53.5698C75.4144 54.5313 73.56 53.5869 73.56 51.9524L73.56 44.9999V38.0474Z" fill="#FF521C"/>
</g>
</g>
<defs>
<filter id="filter0_d_6126_14321" x="41.4957" y="8.20886" width="130.178" height="100.126" filterUnits="userSpaceOnUse" color-interpolation-filters="sRGB">
<feFlood flood-opacity="0" result="BackgroundImageFix"/>
<feColorMatrix in="SourceAlpha" type="matrix" values="0 0 0 0 0 0 0 0 0 0 0 0 0 0 0 0 0 0 127 0" result="hardAlpha"/>
<feOffset dy="2"/>
<feGaussianBlur stdDeviation="2"/>
<feComposite in2="hardAlpha" operator="out"/>
<feColorMatrix type="matrix" values="0 0 0 0 0 0 0 0 0 0 0 0 0 0 0 0 0 0 0.02 0"/>
<feBlend mode="normal" in2="BackgroundImageFix" result="effect1_dropShadow_6126_14321"/>
<feBlend mode="normal" in="SourceGraphic" in2="effect1_dropShadow_6126_14321" result="shape"/>
</filter>
<clipPath id="clip0_6126_14321">
<rect width="208" height="96" fill="white"/>
</clipPath>
<clipPath id="clip1_6126_14321">
<rect width="160" height="160.456" fill="white" transform="translate(24 1)"/>
</clipPath>
</defs>
</svg>
