<svg width="208" height="96" viewBox="0 0 208 96" fill="none" xmlns="http://www.w3.org/2000/svg">
<g clip-path="url(#clip0_6057_11509)">
<rect width="208" height="96" fill="#BFE9E3"/>
<g opacity="0.8" clip-path="url(#clip1_6057_11509)">
<path d="M154.461 89.1104L154.16 89.0469C154.223 88.7495 154.281 88.4468 154.333 88.1471L154.636 88.1995C154.583 88.5029 154.524 88.8093 154.461 89.1104Z" fill="#292A2E"/>
<path d="M130.474 108.736L130.472 108.429C131.081 108.424 131.699 108.396 132.306 108.345L132.332 108.651C131.717 108.703 131.092 108.731 130.474 108.736ZM128.614 108.681C127.999 108.64 127.377 108.574 126.764 108.487L126.808 108.183C127.413 108.269 128.027 108.334 128.636 108.375L128.614 108.681ZM134.178 108.426L134.129 108.122C134.731 108.025 135.337 107.904 135.93 107.762L136.001 108.061C135.401 108.205 134.787 108.328 134.178 108.426ZM124.934 108.157C124.329 108.024 123.723 107.868 123.133 107.691L123.221 107.397C123.805 107.571 124.403 107.726 125 107.856L124.934 108.157ZM137.792 107.56L137.698 107.268C138.278 107.082 138.859 106.871 139.425 106.641L139.541 106.926C138.967 107.158 138.379 107.372 137.792 107.56ZM121.372 107.092C120.794 106.871 120.219 106.625 119.66 106.361L119.791 106.084C120.343 106.345 120.911 106.587 121.481 106.806L121.372 107.092ZM141.237 106.161L141.1 105.886C141.646 105.615 142.189 105.32 142.713 105.008L142.87 105.272C142.339 105.588 141.789 105.886 141.237 106.161H141.237ZM118.009 105.504C117.473 105.198 116.941 104.868 116.427 104.523L116.599 104.268C117.106 104.609 117.631 104.935 118.16 105.236L118.009 105.504ZM144.434 104.264L144.258 104.012C144.758 103.662 145.251 103.29 145.723 102.903L145.917 103.141C145.439 103.532 144.94 103.91 144.433 104.264H144.434ZM114.925 103.426C114.441 103.043 113.964 102.637 113.509 102.219L113.717 101.993C114.167 102.406 114.637 102.807 115.115 103.185L114.925 103.426ZM147.312 101.911L147.1 101.688C147.543 101.268 147.974 100.826 148.384 100.374L148.612 100.58C148.197 101.038 147.76 101.486 147.312 101.911ZM112.188 100.909C111.765 100.458 111.355 99.9857 110.968 99.5047L111.207 99.3121C111.59 99.7872 111.995 100.254 112.412 100.7L112.188 100.909ZM149.808 99.1551L149.565 98.9665C149.939 98.4848 150.3 97.9834 150.637 97.4743L150.893 97.6441C150.552 98.1587 150.187 98.6668 149.808 99.155L149.808 99.1551ZM109.857 98.0129C109.507 97.5041 109.172 96.9758 108.86 96.4424L109.126 96.2875C109.433 96.8144 109.764 97.3362 110.11 97.839L109.857 98.0129ZM151.861 96.0554L151.593 95.9057C151.89 95.3732 152.171 94.8225 152.427 94.2688L152.706 94.3977C152.447 94.9582 152.162 95.5159 151.861 96.0554ZM107.984 94.802C107.713 94.2464 107.46 93.6737 107.233 93.1004L107.518 92.9869C107.743 93.5533 107.993 94.1187 108.26 94.6674L107.984 94.802ZM153.423 92.6821L153.135 92.5746C153.349 92.0046 153.543 91.4181 153.714 90.8313L154.009 90.9169C153.836 91.5098 153.639 92.1038 153.423 92.6811V92.6821Z" fill="#292A2E"/>
<path d="M106.608 91.3338C106.515 91.0402 106.429 90.7407 106.348 90.4428L106.645 90.3625C106.724 90.6559 106.81 90.9517 106.901 91.2418L106.608 91.3338Z" fill="#292A2E"/>
<path d="M35.9798 64.4466C35.6826 64.3586 35.3849 64.2606 35.0953 64.1555L35.2003 63.8668C35.484 63.9698 35.7757 64.0665 36.0671 64.152L35.9798 64.4466Z" fill="#292A2E"/>
<path d="M33.3856 63.4133C32.8315 63.1309 32.2955 62.8146 31.7805 62.4661L31.9527 62.2117C32.4572 62.5531 32.9824 62.863 33.5252 63.1395L33.3856 63.4133ZM30.3048 61.328C29.837 60.9184 29.3949 60.4805 28.9809 60.0166L29.2101 59.812C29.6157 60.2665 30.0488 60.6955 30.5071 61.0968L30.3048 61.328ZM27.8281 58.553C27.4742 58.042 27.1519 57.5099 26.8628 56.9596L27.1347 56.8168C27.418 57.356 27.7339 57.8774 28.0806 58.3781L27.8281 58.553ZM26.0991 55.2606C25.8794 54.6791 25.6957 54.0848 25.5488 53.4808L25.8475 53.4083C25.9912 54 26.1712 54.5823 26.3865 55.152L26.0991 55.2606ZM25.2213 51.6475C25.1551 51.0744 25.1218 50.498 25.1213 49.9211V49.787L25.4286 49.7896V49.9211C25.4288 50.4862 25.4613 51.0508 25.5261 51.6122L25.2213 51.6475ZM25.5593 47.969L25.2548 47.9285C25.3372 47.3124 25.4571 46.7019 25.614 46.1005L25.9112 46.1773C25.7574 46.7668 25.6398 47.3652 25.5588 47.969H25.5593ZM26.4773 44.4424L26.1914 44.3294C26.4199 43.7512 26.6838 43.1876 26.9814 42.6418L27.2511 42.789C26.9595 43.3237 26.7011 43.8759 26.4773 44.4424ZM28.2227 41.244L27.9733 41.0645C28.3363 40.5599 28.7302 40.0781 29.1527 39.622L29.3779 39.8309C28.9641 40.2777 28.5783 40.7496 28.2227 41.244ZM30.6985 38.5712L30.5005 38.3361C30.9758 37.9357 31.4752 37.5646 31.9957 37.2249L32.1636 37.4822C31.6535 37.8149 31.1642 38.1785 30.6985 38.5708V38.5712ZM33.7505 36.5804L33.6154 36.3039C34.1737 36.0304 34.7483 35.7913 35.3358 35.5879L35.4362 35.8782C34.8606 36.0777 34.2976 36.312 33.7505 36.5801V36.5804Z" fill="#00474F"/>
<path d="M37.2002 35.3871L37.1361 35.0867C37.4383 35.0223 37.7466 34.9666 38.0524 34.9208L38.0985 35.2248C37.7982 35.2695 37.4962 35.324 37.2002 35.3871Z" fill="#292A2E"/>
<path d="M51.4125 69.1606C51.4148 67.5149 51.0055 65.8948 50.2219 64.4477C49.4383 63.0006 48.3052 61.7724 46.9258 60.8749C45.5464 59.9775 43.9645 59.4392 42.324 59.3091C40.6835 59.179 39.0365 59.4612 37.5329 60.13C36.0293 60.7989 34.7168 61.8331 33.7149 63.1386C32.713 64.4442 32.0535 65.9795 31.7964 67.6049C31.5393 69.2304 31.6927 70.8943 32.2427 72.4453C32.7928 73.9963 33.7219 75.3852 34.9457 76.4855C36.0443 77.4579 36.9254 78.6511 37.5315 79.9872C38.1376 81.3233 38.4552 82.7722 38.4633 84.2394V84.2501L44.5899 84.2572V84.2466C44.6001 82.781 44.9196 81.334 45.5275 80.0004C46.1354 78.6667 47.0181 77.4764 48.1177 76.5074C49.154 75.5844 49.9832 74.4527 50.5511 73.1865C51.1189 71.9203 51.4125 70.5483 51.4125 69.1606Z" fill="#367CFF"/>
<path d="M51.4125 69.1606C51.4148 67.5149 51.0055 65.8948 50.2219 64.4477C49.4383 63.0006 48.3052 61.7724 46.9258 60.8749C45.5464 59.9775 43.9645 59.4392 42.324 59.3091C40.6835 59.179 39.0365 59.4612 37.5329 60.13C36.0293 60.7989 34.7168 61.8331 33.7149 63.1386C32.713 64.4442 32.0535 65.9795 31.7964 67.6049C31.5393 69.2304 31.6927 70.8943 32.2427 72.4453C32.7928 73.9963 33.7219 75.3852 34.9457 76.4855C36.0443 77.4579 36.9254 78.6511 37.5315 79.9872C38.1376 81.3233 38.4552 82.7722 38.4633 84.2394V84.2501L44.5899 84.2572V84.2466C44.6001 82.781 44.9196 81.334 45.5275 80.0004C46.1354 78.6667 47.0181 77.4764 48.1177 76.5074C49.154 75.5844 49.9832 74.4527 50.5511 73.1865C51.1189 71.9203 51.4125 70.5483 51.4125 69.1606Z" fill="#36CFC9"/>
<path d="M40.3142 84.2787L37.913 70.5533C37.8921 70.4328 37.916 70.3088 37.9801 70.2047C38.0443 70.1005 38.1442 70.0234 38.2612 69.9877C38.4964 69.905 38.7463 69.8729 38.9948 69.8935C39.2432 69.9141 39.4844 69.987 39.7027 70.1074C39.7801 70.1546 39.8531 70.2087 39.9207 70.269C40.1475 70.0664 40.4168 69.9169 40.7087 69.8315C41.6012 69.5558 42.1546 69.9074 42.4616 70.251C42.5272 70.3249 42.5871 70.4037 42.6408 70.4867C43.0597 70.0258 43.5402 69.7867 43.9804 69.8364C44.088 69.84 44.1937 69.8653 44.2912 69.9107C44.3887 69.9562 44.476 70.0209 44.5479 70.101C44.6227 70.195 44.6582 70.3144 44.6468 70.434L42.6864 84.2769L42.3821 84.2338L44.3427 70.3908C44.3439 70.3738 44.347 70.1871 43.9459 70.1418C43.5808 70.1 43.1657 70.3329 42.7978 70.7732C43.0743 71.3745 43.103 72.0916 42.9179 72.514C42.8837 72.6184 42.819 72.7102 42.7322 72.7775C42.6453 72.8448 42.5403 72.8845 42.4307 72.8916C42.3285 72.8995 42.2262 72.878 42.1358 72.8296C42.0455 72.7812 41.9709 72.7079 41.9208 72.6185C41.6889 72.1907 41.9784 71.4097 42.3456 70.8652C42.3746 70.8222 42.404 70.7803 42.4341 70.7397C42.377 70.6382 42.3094 70.543 42.2324 70.4556C41.8732 70.0535 41.391 69.9421 40.7995 70.1251C40.5514 70.1957 40.3223 70.3211 40.1291 70.492C40.3924 70.8618 40.5646 71.2886 40.6314 71.7375C40.748 72.3619 40.5594 72.6249 40.4365 72.726C40.3748 72.7778 40.3002 72.8118 40.2207 72.8244C40.1412 72.837 40.0597 72.8278 39.985 72.7976C39.6317 72.6573 39.3637 72.0543 39.3872 71.4535C39.3955 71.1083 39.5099 70.774 39.7149 70.496C39.6617 70.4487 39.6044 70.4062 39.5436 70.3692C39.362 70.2718 39.1619 70.2137 38.9565 70.1985C38.751 70.1833 38.5446 70.2114 38.3506 70.281C38.3053 70.2949 38.2667 70.3248 38.2419 70.3652C38.2171 70.4056 38.2079 70.4537 38.2161 70.5003L40.6173 84.2257L40.3142 84.2787ZM42.5824 71.063C42.2255 71.604 42.0537 72.2182 42.191 72.4715C42.2138 72.5121 42.2486 72.5447 42.2906 72.5648C42.3326 72.5849 42.3798 72.5915 42.4258 72.5838C42.5099 72.5824 42.5809 72.5171 42.6365 72.3901C42.7734 72.0768 42.7559 71.5409 42.5824 71.063ZM39.9236 70.7311C39.7808 70.9501 39.7011 71.2043 39.6932 71.4656C39.672 72.0062 39.9144 72.4395 40.0975 72.5123C40.1211 72.522 40.147 72.5249 40.1721 72.5208C40.1973 72.5167 40.2209 72.5057 40.2402 72.489C40.2844 72.4524 40.4218 72.2945 40.3284 71.794C40.2714 71.4147 40.1333 71.0521 39.9236 70.7309V70.7311Z" fill="white"/>
<path d="M38.4634 84.25L44.5901 84.2571L44.5897 84.615C44.5888 85.4274 44.2651 86.2062 43.69 86.78C43.1148 87.3538 42.3353 87.6757 41.5229 87.6747C41.1206 87.6743 40.7223 87.5946 40.3508 87.4402C39.9793 87.2859 39.6419 87.0599 39.3577 86.7751C39.0736 86.4903 38.8483 86.1523 38.6948 85.7805C38.5413 85.4086 38.4625 85.0102 38.463 84.6079L38.4634 84.25Z" fill="#006D75"/>
<path opacity="0.5" d="M38.4634 84.25L44.5901 84.2571L44.5897 84.615C44.5888 85.4274 44.2651 86.2062 43.69 86.78C43.1148 87.3538 42.3353 87.6757 41.5229 87.6747C41.1206 87.6743 40.7223 87.5946 40.3508 87.4402C39.9793 87.2859 39.6419 87.0599 39.3577 86.7751C39.0736 86.4903 38.8483 86.1523 38.6948 85.7805C38.5413 85.4086 38.4625 85.0102 38.463 84.6079L38.4634 84.25Z" fill="#08979C"/>
<path d="M41.189 11.2531L40.9143 11.1157C41.0526 10.8392 41.202 10.5627 41.3572 10.2961L41.6228 10.4507C41.4708 10.7117 41.3248 10.9817 41.189 11.2531Z" fill="#292A2E"/>
<path d="M67.9343 15.369C67.8418 14.7946 67.7144 14.2264 67.5529 13.6676L67.848 13.5822C68.013 14.1531 68.1431 14.7334 68.2377 15.3201L67.9343 15.369ZM66.9666 12.0252C66.738 11.4903 66.477 10.9697 66.1852 10.4665L66.4508 10.3129C66.7491 10.8269 67.0159 11.3587 67.2495 11.9052L66.9666 12.0252ZM65.2191 9.01443C64.8676 8.55125 64.488 8.11008 64.0824 7.69338L64.3025 7.47833C64.7171 7.90418 65.1052 8.35511 65.4644 8.82856L65.2191 9.01443ZM42.5904 8.99906L42.3458 8.8132C42.7057 8.34008 43.0942 7.88952 43.5093 7.46404L43.7291 7.67909C43.323 8.09545 42.9429 8.53642 42.591 8.99953L42.5904 8.99906ZM62.7901 6.5218C62.3357 6.1584 61.8594 5.82326 61.364 5.51826L61.5251 5.25713C62.0313 5.56878 62.5178 5.91115 62.9821 6.28232L62.7901 6.5218ZM45.022 6.50889L44.8303 6.2688C45.2948 5.89804 45.7816 5.55618 46.2881 5.24514L46.4489 5.50628C45.9534 5.81112 45.4771 6.1461 45.0226 6.50935L45.022 6.50889ZM59.8265 4.6963C59.298 4.45331 58.7551 4.24273 58.201 4.06573L58.2942 3.7731C58.8604 3.95386 59.4149 4.16895 59.9549 4.41719L59.8265 4.6963ZM47.9885 4.68815L47.861 4.40874C48.4017 4.16207 48.9568 3.94852 49.5234 3.76926L49.6156 4.06219C49.061 4.23769 48.5177 4.44673 47.9885 4.68815ZM56.5113 3.63977C55.9395 3.53267 55.3617 3.46085 54.7812 3.42471L54.8002 3.11749C55.3934 3.15423 55.9837 3.22749 56.5678 3.33685L56.5113 3.63977ZM51.3074 3.63884L51.2512 3.33639C51.8354 3.22774 52.4257 3.15484 53.0188 3.11811L53.0377 3.42533C52.4571 3.4611 51.8793 3.53225 51.3074 3.63838V3.63884Z" fill="#00474F"/>
<path d="M68.4163 18.0307L68.1091 18.0221C68.1175 17.7201 68.1163 17.4134 68.1052 17.1105L68.4124 17.0992C68.424 17.4088 68.4249 17.7223 68.4163 18.0307Z" fill="#292A2E"/>
<path d="M36.6045 36.0014C43.5657 36.0014 49.2089 30.3582 49.2089 23.3969C49.2089 16.4357 43.5657 10.7925 36.6045 10.7925C29.6432 10.7925 24 16.4357 24 23.3969C24 30.3582 29.6432 36.0014 36.6045 36.0014Z" fill="#36CFC9"/>
<path d="M111.652 23.6647L111.36 23.5705C111.454 23.2786 111.554 22.9833 111.657 22.6929L111.947 22.7955C111.844 23.0831 111.745 23.3754 111.652 23.6647Z" fill="#292A2E"/>
<path d="M171.032 26.5857C170.905 25.9985 170.758 25.4077 170.597 24.8297L170.892 24.7469C171.056 25.3306 171.204 25.9275 171.333 26.5205L171.032 26.5857ZM170.058 23.102C169.863 22.5337 169.648 21.9644 169.42 21.4086L169.704 21.2919C169.934 21.8532 170.152 22.4286 170.349 23.002L170.058 23.102ZM112.6 21.1072L112.317 20.9879C112.552 20.429 112.808 19.8698 113.075 19.3254L113.351 19.461C113.086 20 112.833 20.5539 112.6 21.1072ZM168.683 19.7555C168.422 19.2138 168.143 18.6731 167.851 18.1482L168.12 17.9991C168.414 18.529 168.697 19.0753 168.96 19.6223L168.683 19.7555ZM114.198 17.8619L113.93 17.7103C114.23 17.1825 114.549 16.657 114.88 16.1484L115.137 16.3164C114.811 16.8192 114.494 17.3395 114.198 17.8619ZM166.928 16.5929C166.605 16.086 166.265 15.581 165.914 15.0934L166.163 14.914C166.517 15.4055 166.862 15.9158 167.187 16.4283L166.928 16.5929ZM116.168 14.8264L115.921 14.6441C116.281 14.1553 116.66 13.671 117.049 13.2045L117.285 13.4011C116.9 13.863 116.525 14.3424 116.168 14.8264ZM164.814 13.6552C164.436 13.1891 164.038 12.7281 163.632 12.2848L163.858 12.0773C164.268 12.525 164.67 12.9908 165.052 13.4613L164.814 13.6552ZM118.484 12.0446L118.26 11.8343C118.675 11.3917 119.109 10.9556 119.55 10.5383L119.762 10.7613C119.325 11.1747 118.895 11.6063 118.484 12.0446ZM162.371 10.9862C161.939 10.5673 161.49 10.1567 161.034 9.76437L161.235 9.53165C161.694 9.9275 162.148 10.3427 162.584 10.7658L162.371 10.9862ZM121.112 9.55577L120.915 9.32059C121.378 8.93042 121.861 8.54839 122.347 8.18526L122.532 8.43103C122.048 8.7911 121.571 9.16928 121.112 9.55577ZM159.63 8.62366C159.152 8.25899 158.657 7.90385 158.159 7.56805L158.33 7.31322C158.834 7.65239 159.334 8.01122 159.816 8.37942L159.63 8.62366ZM124.013 7.39263L123.844 7.1361C124.351 6.80262 124.874 6.47973 125.399 6.17635L125.553 6.4424C125.032 6.74271 124.514 7.06252 124.013 7.39263ZM156.627 6.60123C156.111 6.29616 155.577 6.00215 155.043 5.7275L155.183 5.45407C155.723 5.73165 156.262 6.02873 156.783 6.33672L156.627 6.60123ZM127.146 5.58372L127.008 5.30907C127.55 5.03702 128.107 4.77742 128.664 4.53748L128.786 4.81966C128.235 5.05684 127.683 5.31429 127.146 5.58372ZM153.41 4.94931C152.861 4.70707 152.297 4.47758 151.734 4.26728L151.842 3.97942C152.41 4.19186 152.98 4.4235 153.534 4.66821L153.41 4.94931ZM130.469 4.15269L130.364 3.8639C130.934 3.65684 131.518 3.46452 132.1 3.29094L132.187 3.58541C131.611 3.75699 131.033 3.94777 130.469 4.15269ZM150.022 3.6828C149.446 3.50507 148.859 3.3424 148.278 3.19923L148.351 2.90077C148.938 3.04547 149.531 3.20983 150.112 3.38925L150.022 3.6828ZM133.935 3.12012L133.865 2.82105C134.456 2.6828 135.058 2.55991 135.655 2.45561L135.707 2.75837C135.116 2.86022 134.52 2.9831 133.935 3.12012ZM146.508 2.81797C145.916 2.7086 145.314 2.61552 144.719 2.54148L144.757 2.23671C145.358 2.31152 145.966 2.40568 146.563 2.51598L146.508 2.81797ZM137.498 2.50138L137.463 2.19616C138.066 2.1278 138.678 2.07665 139.283 2.04409L139.3 2.35131C138.701 2.3831 138.094 2.43379 137.498 2.50138ZM142.917 2.37081C142.318 2.33195 141.71 2.31045 141.109 2.30722L141.11 2C141.718 2.00323 142.332 2.02488 142.937 2.06421L142.917 2.37081Z" fill="#00474F"/>
<path d="M171.493 29.2819C171.455 28.9797 171.412 28.6741 171.365 28.3738L171.669 28.3266C171.716 28.6298 171.76 28.9384 171.798 29.2437L171.493 29.2819Z" fill="#292A2E"/>
<path d="M176.893 39.7059C176.671 39.4993 176.441 39.2947 176.21 39.0974L176.409 38.8636C176.644 39.0633 176.877 39.2712 177.103 39.4807L176.893 39.7059Z" fill="#292A2E"/>
<path d="M162.953 76.9121L162.945 76.6048C163.543 76.5895 164.147 76.5477 164.741 76.482L164.775 76.7873C164.172 76.8541 163.559 76.8961 162.953 76.9121ZM161.127 76.8836C160.521 76.8486 159.91 76.7875 159.31 76.7016L159.354 76.3976C159.945 76.4821 160.548 76.5425 161.145 76.5769L161.127 76.8836ZM166.58 76.5101L166.521 76.2087C167.108 76.093 167.697 75.9509 168.271 75.7867L168.356 76.082C167.772 76.2488 167.175 76.3933 166.58 76.5101H166.58ZM170.088 75.5058L169.979 75.2187C170.539 75.0061 171.095 74.7669 171.634 74.5081L171.767 74.7846C171.22 75.0475 170.655 75.2901 170.088 75.5058H170.088ZM173.378 73.9236L173.222 73.6589C173.737 73.3548 174.245 73.0248 174.732 72.6783L174.91 72.9286C174.416 73.2807 173.9 73.6154 173.377 73.9242L173.378 73.9236ZM176.352 71.807L176.154 71.5726C176.609 71.1864 177.054 70.775 177.477 70.3503L177.695 70.567C177.265 70.9985 176.814 71.4164 176.352 71.8076L176.352 71.807ZM178.927 69.22L178.692 69.0222C179.078 68.5637 179.448 68.0852 179.793 67.5978L180.043 67.7752C179.693 68.2697 179.318 68.7557 178.926 69.2207L178.927 69.22ZM181.034 66.242L180.77 66.0864C181.072 65.5715 181.357 65.0371 181.614 64.4978L181.891 64.6303C181.63 65.1781 181.341 65.7203 181.034 66.2426L181.034 66.242ZM182.61 62.9514L182.322 62.8428C182.534 62.2836 182.724 61.7085 182.887 61.1336L183.182 61.2174C183.016 61.8013 182.824 62.3841 182.609 62.9524L182.61 62.9514ZM183.605 59.4411L183.304 59.3826C183.417 58.7964 183.507 58.1974 183.571 57.6025L183.877 57.6354C183.811 58.2394 183.72 58.8469 183.605 59.4417L183.605 59.4411ZM183.995 55.8131L183.688 55.8062C183.692 55.6437 183.693 55.4812 183.693 55.3188C183.693 54.8827 183.68 54.4412 183.653 54.0064L183.96 53.9876C183.987 54.4286 184.001 54.8764 184.001 55.3188C184.001 55.4839 183.998 55.6489 183.995 55.8137L183.995 55.8131ZM183.468 52.2159C183.381 51.6239 183.268 51.0288 183.132 50.4472L183.432 50.3772C183.57 50.9673 183.684 51.5709 183.772 52.1713L183.468 52.2159ZM182.648 48.7128C182.464 48.1444 182.253 47.5761 182.021 47.0257L182.304 46.9063C182.539 47.4653 182.754 48.0412 182.941 48.618L182.648 48.7128ZM181.253 45.3974C180.975 44.8681 180.671 44.3443 180.349 43.8406L180.608 43.6752C180.934 44.1861 181.243 44.7176 181.525 45.2547L181.253 45.3974ZM179.316 42.3661C178.952 41.8922 178.564 41.4274 178.161 40.9847L178.388 40.7778C178.797 41.2271 179.191 41.6985 179.559 42.1793L179.316 42.3661Z" fill="#00474F"/>
<path d="M157.51 76.3658C157.21 76.2965 156.907 76.2197 156.61 76.1376L156.692 75.8416C156.985 75.9225 157.283 75.9982 157.579 76.0664L157.51 76.3658Z" fill="#292A2E"/>
<path d="M173.071 41.9542C179.022 41.9542 183.846 37.1299 183.846 31.1788C183.846 25.2277 179.022 20.4034 173.071 20.4034C167.12 20.4034 162.296 25.2277 162.296 31.1788C162.296 37.1299 167.12 41.9542 173.071 41.9542Z" fill="white"/>
<path opacity="0.6" d="M173.071 41.9542C179.022 41.9542 183.846 37.1299 183.846 31.1788C183.846 25.2277 179.022 20.4034 173.071 20.4034C167.12 20.4034 162.296 25.2277 162.296 31.1788C162.296 37.1299 167.12 41.9542 173.071 41.9542Z" fill="#36CFC9"/>
<path d="M173.071 39.4189C177.622 39.4189 181.311 35.7297 181.311 31.1788C181.311 26.6279 177.622 22.9387 173.071 22.9387C168.52 22.9387 164.831 26.6279 164.831 31.1788C164.831 35.7297 168.52 39.4189 173.071 39.4189Z" fill="white"/>
<path opacity="0.8" d="M173.071 36.8834C176.222 36.8834 178.776 34.3294 178.776 31.1788C178.776 28.0282 176.222 25.4742 173.071 25.4742C169.92 25.4742 167.366 28.0282 167.366 31.1788C167.366 34.3294 169.92 36.8834 173.071 36.8834Z" fill="#36CFC9"/>
<path d="M173.071 34.3481C174.821 34.3481 176.24 32.9291 176.24 31.1788C176.24 29.4285 174.821 28.0095 173.071 28.0095C171.321 28.0095 169.902 29.4285 169.902 31.1788C169.902 32.9291 171.321 34.3481 173.071 34.3481Z" fill="white"/>
<path opacity="0.9" d="M173.071 32.1806C173.624 32.1806 174.073 31.7321 174.073 31.1788C174.073 30.6255 173.624 30.1769 173.071 30.1769C172.518 30.1769 172.069 30.6255 172.069 31.1788C172.069 31.7321 172.518 32.1806 173.071 32.1806Z" fill="#36CFC9"/>
<path d="M177.637 81.8681H175.359C175.178 81.8684 175.002 81.8123 174.854 81.7077C174.706 81.6032 174.594 81.4552 174.534 81.2844C174.36 80.7838 174.154 80.2948 173.917 79.8205C173.835 79.6564 173.807 79.4708 173.837 79.2898C173.867 79.1089 173.953 78.942 174.083 78.8128L175.702 77.1938C175.866 77.0291 175.959 76.8059 175.959 76.5732C175.959 76.3405 175.866 76.1172 175.702 75.9526L172.204 72.4564C172.039 72.2919 171.816 72.1995 171.584 72.1995C171.351 72.1995 171.128 72.2919 170.963 72.4564L169.315 74.1045C169.187 74.2333 169.021 74.3189 168.842 74.3492C168.663 74.3794 168.479 74.353 168.315 74.2735C167.85 74.0462 167.371 73.8487 166.88 73.6821C166.708 73.6232 166.558 73.5117 166.452 73.3632C166.346 73.2147 166.289 73.0367 166.289 72.8541V70.5193C166.289 70.4041 166.266 70.29 166.222 70.1836C166.178 70.0772 166.114 69.9805 166.032 69.899C165.951 69.8176 165.854 69.753 165.748 69.7089C165.641 69.6648 165.527 69.6421 165.412 69.6422H160.467C160.352 69.6421 160.238 69.6647 160.131 69.7088C160.025 69.7528 159.928 69.8174 159.847 69.8989C159.765 69.9804 159.701 70.0771 159.657 70.1835C159.612 70.29 159.59 70.4041 159.59 70.5193V72.8541C159.59 73.0366 159.533 73.2146 159.427 73.3631C159.321 73.5117 159.171 73.6232 158.999 73.6821C158.508 73.8486 158.029 74.0462 157.564 74.2735C157.4 74.353 157.216 74.3794 157.037 74.3492C156.857 74.3189 156.692 74.2333 156.564 74.1045L154.915 72.4563C154.751 72.2918 154.528 72.1994 154.295 72.1994C154.062 72.1994 153.839 72.2918 153.674 72.4563L150.177 75.9524C150.012 76.117 149.92 76.3403 149.92 76.573C149.92 76.8058 150.012 77.029 150.177 77.1936L151.796 78.8127C151.926 78.9419 152.012 79.1088 152.042 79.2897C152.071 79.4706 152.043 79.6562 151.962 79.8203C151.725 80.2944 151.519 80.7834 151.346 81.2843C151.285 81.4551 151.173 81.6029 151.025 81.7074C150.877 81.812 150.7 81.8681 150.519 81.868H148.241C148.126 81.8679 148.012 81.8906 147.905 81.9347C147.799 81.9788 147.702 82.0434 147.621 82.1248C147.539 82.2063 147.475 82.303 147.431 82.4094C147.387 82.5158 147.364 82.6299 147.364 82.7451V87.6913C147.364 87.8065 147.387 87.9206 147.431 88.027C147.475 88.1334 147.539 88.2301 147.621 88.3116C147.702 88.393 147.799 88.4576 147.905 88.5017C148.012 88.5458 148.126 88.5685 148.241 88.5684H150.459C150.644 88.5683 150.824 88.6264 150.973 88.7345C151.123 88.8427 151.234 88.9953 151.292 89.1706C151.463 89.6847 151.668 90.1871 151.905 90.6744C151.985 90.8386 152.012 91.0237 151.983 91.2041C151.953 91.3844 151.868 91.551 151.739 91.6806L150.177 93.2428C150.095 93.3241 150.031 93.4207 149.986 93.5271C149.942 93.6334 149.92 93.7475 149.92 93.8626C149.92 93.9778 149.942 94.0918 149.986 94.1981C150.031 94.3045 150.095 94.4011 150.177 94.4824L153.674 97.9801C153.839 98.1446 154.062 98.237 154.295 98.237C154.528 98.237 154.751 98.1446 154.915 97.9801L156.447 96.4486C156.578 96.3185 156.746 96.2328 156.928 96.2035C157.11 96.1743 157.296 96.2031 157.461 96.2858C157.956 96.5333 158.468 96.7468 158.992 96.9248C159.166 96.9836 159.317 97.0954 159.425 97.2444C159.532 97.3934 159.59 97.5723 159.59 97.7558V99.9156C159.59 100.031 159.612 100.145 159.656 100.252C159.7 100.358 159.765 100.455 159.846 100.537C159.928 100.618 160.025 100.683 160.131 100.727C160.238 100.772 160.352 100.794 160.467 100.794H165.412C165.527 100.794 165.641 100.771 165.748 100.727C165.854 100.683 165.951 100.618 166.033 100.537C166.114 100.455 166.179 100.358 166.223 100.252C166.267 100.145 166.289 100.031 166.289 99.9156V97.7558C166.289 97.5723 166.347 97.3934 166.454 97.2444C166.561 97.0954 166.713 96.9836 166.886 96.9248C167.411 96.7469 167.923 96.5333 168.418 96.2858C168.583 96.2031 168.769 96.1743 168.951 96.2036C169.133 96.2328 169.301 96.3185 169.432 96.4486L170.963 97.9801C171.128 98.1446 171.351 98.237 171.584 98.237C171.817 98.237 172.04 98.1446 172.204 97.9801L175.702 94.4824C175.784 94.4011 175.848 94.3045 175.892 94.1981C175.937 94.0918 175.959 93.9778 175.959 93.8626C175.959 93.7475 175.937 93.6334 175.892 93.5271C175.848 93.4207 175.784 93.3241 175.702 93.2428L174.14 91.6806C174.011 91.551 173.926 91.3844 173.896 91.204C173.866 91.0237 173.894 90.8386 173.974 90.6744C174.211 90.1871 174.416 89.6847 174.587 89.1706C174.645 88.9953 174.756 88.8427 174.906 88.7345C175.055 88.6264 175.235 88.5683 175.419 88.5684H177.638C177.753 88.5685 177.867 88.5459 177.973 88.5018C178.08 88.4577 178.176 88.3931 178.258 88.3117C178.339 88.2302 178.404 88.1335 178.448 88.027C178.492 87.9206 178.515 87.8065 178.515 87.6913V82.7451C178.515 82.6299 178.492 82.5158 178.448 82.4093C178.404 82.3029 178.339 82.2062 178.258 82.1247C178.176 82.0433 178.08 81.9787 177.973 81.9347C177.867 81.8906 177.752 81.868 177.637 81.8681ZM162.94 92.5271C161.494 92.5273 160.081 92.0987 158.879 91.2956C157.676 90.4924 156.739 89.3509 156.186 88.0152C155.633 86.6795 155.488 85.2097 155.77 83.7918C156.052 82.3738 156.748 81.0713 157.77 80.049C158.793 79.0267 160.095 78.3305 161.513 78.0485C162.931 77.7665 164.401 77.9113 165.737 78.4646C167.072 79.0179 168.214 79.9549 169.017 81.1571C169.82 82.3593 170.249 83.7726 170.249 85.2184C170.248 87.1566 169.478 89.0155 168.108 90.3861C166.737 91.7567 164.878 92.5268 162.94 92.5271H162.94Z" fill="#36CFC9"/>
<g filter="url(#filter0_d_6057_11509)">
<path d="M156.386 11H52.6142C50.0658 11 48 13.3761 48 16.3071V103.693C48 106.624 50.0658 109 52.6142 109H156.386C158.934 109 161 106.624 161 103.693V16.3071C161 13.3761 158.934 11 156.386 11Z" fill="#DEF4F5"/>
</g>
<path opacity="0.9" d="M152.109 45.7867H56.8914C55.5707 45.7867 54.5 46.889 54.5 48.2487V61.8162C54.5 63.1759 55.5707 64.2783 56.8914 64.2783H152.109C153.429 64.2783 154.5 63.1759 154.5 61.8162V48.2487C154.5 46.889 153.429 45.7867 152.109 45.7867Z" fill="white"/>
<path opacity="0.98" d="M152.109 70.2783H56.8914C55.5707 70.2783 54.5 71.3806 54.5 72.7403V86.3078C54.5 87.6675 55.5707 88.7698 56.8914 88.7698H152.109C153.429 88.7698 154.5 87.6675 154.5 86.3078V72.7403C154.5 71.3806 153.429 70.2783 152.109 70.2783Z" fill="white"/>
<path d="M152.109 21.2951H56.8914C55.5707 21.2951 54.5 22.3974 54.5 23.7572V37.3246C54.5 38.6844 55.5707 39.7867 56.8914 39.7867H152.109C153.429 39.7867 154.5 38.6844 154.5 37.3246V23.7572C154.5 22.3974 153.429 21.2951 152.109 21.2951Z" fill="#07C7CE"/>
<path d="M85.2439 24.508H59.4396C58.7732 24.508 58.233 25.0642 58.233 25.7502C58.233 26.4363 58.7732 26.9925 59.4396 26.9925H85.2439C85.9103 26.9925 86.4505 26.4363 86.4505 25.7502C86.4505 25.0642 85.9103 24.508 85.2439 24.508Z" fill="white"/>
<path opacity="0.8" d="M106.768 36.306H58.2328C58.1932 36.306 58.1553 36.2112 58.1273 36.0424C58.0993 35.8736 58.0836 35.6447 58.0836 35.406C58.0836 35.1673 58.0993 34.9384 58.1273 34.7696C58.1553 34.6008 58.1932 34.506 58.2328 34.506H106.768C106.808 34.506 106.846 34.6008 106.874 34.7696C106.902 34.9384 106.917 35.1673 106.917 35.406C106.917 35.6447 106.902 35.8736 106.874 36.0424C106.846 36.2112 106.808 36.306 106.768 36.306Z" fill="white"/>
<path opacity="0.8" d="M150.335 31.706H58.2328C58.1932 31.706 58.1553 31.6112 58.1273 31.4424C58.0993 31.2736 58.0836 31.0447 58.0836 30.806C58.0836 30.5673 58.0993 30.3384 58.1273 30.1696C58.1553 30.0008 58.1932 29.906 58.2328 29.906H150.335C150.375 29.906 150.413 30.0008 150.441 30.1696C150.469 30.3384 150.484 30.5673 150.484 30.806C150.484 31.0447 150.469 31.2736 150.441 31.4424C150.413 31.6112 150.375 31.706 150.335 31.706Z" fill="white"/>
<path d="M39.3223 23.5669C38.9005 24.4815 38.2018 25.2403 37.325 25.736C36.4483 26.2317 35.4378 26.4392 34.4367 26.3292C33.4355 26.2191 32.4943 25.797 31.7462 25.1227C30.998 24.4483 30.4809 23.5558 30.2678 22.5714C30.0548 21.587 30.1567 20.5605 30.559 19.6372C30.9614 18.7138 31.6439 17.9404 32.5099 17.4262C33.376 16.912 34.3818 16.6832 35.3851 16.772C36.3883 16.8609 37.3383 17.2629 38.1005 17.9212C38.8879 18.6032 39.4326 19.5222 39.653 20.5403C39.8733 21.5583 39.7573 22.6204 39.3223 23.5669ZM31.5749 20.001C31.1785 20.8592 31.1222 21.8357 31.4174 22.7337C31.7126 23.6318 32.3372 24.3845 33.1654 24.8402C33.9936 25.2959 34.9638 25.4207 35.8804 25.1894C36.7969 24.958 37.5917 24.3879 38.1045 23.5937C38.6173 22.7996 38.81 21.8406 38.6436 20.91C38.4773 19.9795 37.9644 19.1466 37.2083 18.5792C36.4522 18.0119 35.5091 17.7523 34.5691 17.8528C33.6292 17.9533 32.7623 18.4064 32.1432 19.1208C31.9134 19.3861 31.7221 19.6824 31.5749 20.001Z" fill="white"/>
<path d="M43.0003 29.7275C42.9634 29.8073 42.9076 29.8769 42.8376 29.9302C42.7676 29.9834 42.6857 30.0188 42.5989 30.0331C42.5122 30.0474 42.4233 30.0403 42.3399 30.0124C42.2565 29.9845 42.1812 29.9366 42.1206 29.8729L37.5638 25.0758C37.5151 25.0245 37.4769 24.9641 37.4515 24.8981C37.4261 24.8321 37.414 24.7617 37.4158 24.691C37.4176 24.6203 37.4334 24.5506 37.4621 24.486C37.4908 24.4214 37.532 24.363 37.5833 24.3143C37.6346 24.2656 37.6949 24.2275 37.7609 24.2021C37.827 24.1767 37.8973 24.1646 37.968 24.1664C38.0388 24.1682 38.1084 24.1839 38.173 24.2126C38.2377 24.2414 38.296 24.2826 38.3447 24.3338L42.9013 29.1309C42.9756 29.209 43.0247 29.3077 43.0424 29.414C43.0601 29.5204 43.0454 29.6296 43.0003 29.7275Z" fill="white"/>
</g>
</g>
<defs>
<filter id="filter0_d_6057_11509" x="44" y="9" width="121" height="106" filterUnits="userSpaceOnUse" color-interpolation-filters="sRGB">
<feFlood flood-opacity="0" result="BackgroundImageFix"/>
<feColorMatrix in="SourceAlpha" type="matrix" values="0 0 0 0 0 0 0 0 0 0 0 0 0 0 0 0 0 0 127 0" result="hardAlpha"/>
<feOffset dy="2"/>
<feGaussianBlur stdDeviation="2"/>
<feComposite in2="hardAlpha" operator="out"/>
<feColorMatrix type="matrix" values="0 0 0 0 0 0 0 0 0 0 0 0 0 0 0 0 0 0 0.02 0"/>
<feBlend mode="normal" in2="BackgroundImageFix" result="effect1_dropShadow_6057_11509"/>
<feBlend mode="normal" in="SourceGraphic" in2="effect1_dropShadow_6057_11509" result="shape"/>
</filter>
<clipPath id="clip0_6057_11509">
<rect width="208" height="96" fill="white"/>
</clipPath>
<clipPath id="clip1_6057_11509">
<rect width="160" height="106.736" fill="white" transform="translate(24 2)"/>
</clipPath>
</defs>
</svg>
