<svg width="13" height="12" viewBox="0 0 13 12" fill="none" xmlns="http://www.w3.org/2000/svg">
<g id="Img &#226;&#134;&#146; SVG" clip-path="url(#clip0_1_13)">
<g id="Group">
<path id="Vector" fill-rule="evenodd" clip-rule="evenodd" d="M4.5 0C2.29086 0 0.5 1.79086 0.5 4V8C0.5 10.2091 2.29086 12 4.5 12H8.5C10.7091 12 12.5 10.2091 12.5 8V4C12.5 1.79086 10.7091 0 8.5 0H4.5ZM6.50002 2.89999C6.18319 2.89999 5.92634 3.15684 5.92634 3.47368V5.42631H3.97371C3.65687 5.42631 3.40002 5.68316 3.40002 5.99999C3.40002 6.31683 3.65687 6.57368 3.97371 6.57368H5.92634V8.52631C5.92634 8.84315 6.18319 9.09999 6.50002 9.09999C6.81686 9.09999 7.07371 8.84315 7.07371 8.52631V6.57368H9.02634C9.34318 6.57368 9.60002 6.31683 9.60002 5.99999C9.60002 5.68316 9.34318 5.42631 9.02634 5.42631H7.07371V3.47368C7.07371 3.15684 6.81686 2.89999 6.50002 2.89999Z" fill="white"/>
</g>
</g>
<defs>
<clipPath id="clip0_1_13">
<rect width="12" height="12" fill="white" transform="translate(0.5)"/>
</clipPath>
</defs>
</svg>
