<svg width="24" height="24" viewBox="0 0 24 24" fill="none" xmlns="http://www.w3.org/2000/svg">
<path fill-rule="evenodd" clip-rule="evenodd" d="M21.5155 3.07531C21.6183 3.12215 21.7106 3.18933 21.7867 3.27279C21.9318 3.43412 22.0088 3.6453 22.0016 3.86211C21.9945 4.07893 21.9038 4.28458 21.7484 4.43602L21.066 5.11509L19.8838 3.93592L20.578 3.24397C20.658 3.16423 20.7534 3.10153 20.8583 3.05964C20.9633 3.01775 21.0756 2.99755 21.1885 3.00024C21.3015 3.00293 21.4127 3.02847 21.5155 3.07531ZM10.8531 14.1469H13.7635L14.1192 13.7905L19.3461 8.55285V16C19.3461 17.6569 18.003 19 16.3461 19H9C7.34315 19 6 17.6569 6 16V8.65386C6 6.99701 7.34315 5.65386 9 5.65386H16.4471L11.2095 10.8808L10.8531 11.2365V14.1469ZM20.5894 5.5894L19.3461 6.8353V5.65386L19.3459 6.83402L13.2601 12.9323H12.0662V11.7384L18.1648 5.65259H18.1664L19.4106 4.41062L20.5894 5.5894Z" fill="url(#paint0_linear_5_1325)"/>
<defs>
<linearGradient id="paint0_linear_5_1325" x1="5.4838" y1="19" x2="22.6489" y2="18.4419" gradientUnits="userSpaceOnUse">
<stop stop-color="#1C5BFF"/>
<stop offset="1" stop-color="#FF65D4"/>
</linearGradient>
</defs>
</svg>
