<svg width="57" height="56" viewBox="0 0 57 56" fill="none" xmlns="http://www.w3.org/2000/svg">
<g id="Img &#226;&#134;&#146; SVG">
<path id="Vector" d="M19.4265 8.5C20.3781 8.5 21.3 8.81661 22.0488 9.39592L22.2486 9.56039L25.2042 12.1465C25.4213 12.3364 25.6896 12.4553 25.9732 12.4896L26.145 12.5H45.9286C48.2192 12.5 50.09 14.297 50.2083 16.5581L50.2143 16.7857L50.2153 25.7073C49.3539 24.9362 48.3944 24.2723 47.3579 23.7368L47.3571 16.7857C47.3571 16.046 46.795 15.4377 46.0746 15.3645L45.9286 15.3571L26.0399 15.3559L23.6091 18.3454C22.8496 19.2802 21.7346 19.8492 20.54 19.9209L20.2829 19.9286L7.35714 19.9274V38.5C7.35714 39.2397 7.91929 39.848 8.63965 39.9212L8.78571 39.9286L27.9498 39.9291C28.2563 40.9357 28.6755 41.8932 29.1926 42.7869L8.78571 42.7857C6.49513 42.7857 4.62426 40.9887 4.50594 38.7276L4.5 38.5V12.7857C4.5 10.4951 6.29698 8.62426 8.5581 8.50594L8.78571 8.5H19.4265ZM19.4265 11.3571H8.78571C8.04605 11.3571 7.43768 11.9193 7.36452 12.6397L7.35714 12.7857V17.0703L20.2829 17.0714C20.6594 17.0714 21.0182 16.923 21.2838 16.6622L21.3917 16.5437L23.26 14.2429L20.3672 11.7106C20.1502 11.5207 19.8819 11.4019 19.5982 11.3675L19.4265 11.3571ZM41.0714 24.5C47.3833 24.5 52.5 29.6167 52.5 35.9286C52.5 42.2404 47.3833 47.3571 41.0714 47.3571C34.7596 47.3571 29.6429 42.2404 29.6429 35.9286C29.6429 29.6167 34.7596 24.5 41.0714 24.5ZM41.0714 29.0714C40.4853 29.0714 40.0023 29.5126 39.9363 30.081L39.9286 30.2143V34.7857H35.3571C34.771 34.7857 34.288 35.2269 34.222 35.7953L34.2143 35.9286C34.2143 36.5147 34.6555 36.9977 35.2239 37.0637L35.3571 37.0714H39.9286V41.6429C39.9286 42.229 40.3698 42.712 40.9381 42.778L41.0714 42.7857C41.6575 42.7857 42.1406 42.3445 42.2066 41.7761L42.2143 41.6429V37.0714H46.7857C47.3718 37.0714 47.8549 36.6302 47.9209 36.0619L47.9286 35.9286C47.9286 35.3425 47.4874 34.8594 46.919 34.7934L46.7857 34.7857H42.2143V30.2143C42.2143 29.6282 41.7731 29.1451 41.2047 29.0791L41.0714 29.0714Z" fill="#3C38FF"/>
</g>
</svg>
